<?xml version="1.0" encoding="UTF-8"?>
<svg xmlns="http://www.w3.org/2000/svg" xmlns:xlink="http://www.w3.org/1999/xlink" width="50px" height="50px" viewBox="0 0 50 50" version="1.1">
<g id="surface485149">
<path style="fill-rule:nonzero;fill:rgb(89.019608%,100%,72.156863%);fill-opacity:1;stroke-width:2;stroke-linecap:butt;stroke-linejoin:round;stroke:rgb(0%,0%,0%);stroke-opacity:1;stroke-miterlimit:10;" d="M 170.84122 75.717864 L 152.956288 90.161817 L 158.804593 112.521382 C 159.14461 113.895053 158.804593 115.282325 157.430921 116.315979 C 156.397267 116.996015 154.669977 117.336032 153.636323 116.315979 L 134.37772 103.585716 L 130.71913 105.925038 L 130.71913 161.674342 C 130.71913 162.912007 130.066296 164.054466 128.99184 164.666498 C 128.461412 164.965714 127.876581 165.115321 127.27815 165.115321 C 126.679719 165.115321 126.081288 164.965714 125.55086 164.652897 L 86 141.586096 L 46.44914 164.652897 C 45.388284 165.264929 44.082616 165.27853 43.00816 164.666498 C 41.933704 164.054466 41.28087 162.912007 41.28087 161.674342 L 41.28087 10.325658 C 41.28087 8.421559 42.817751 6.884679 44.72185 6.884679 L 127.27815 6.884679 C 129.182249 6.884679 130.71913 8.421559 130.71913 10.325658 L 130.71913 46.693952 L 130.936741 46.136323 C 131.630377 45.442687 133.004049 44.409033 134.37772 44.409033 C 135.751392 44.409033 137.125063 45.442687 137.478682 46.476341 L 145.734312 68.15587 L 168.773912 69.529542 C 170.147584 69.529542 171.534856 70.563196 171.874873 71.936867 C 172.214891 73.310539 171.874873 74.684211 170.84122 75.717864 Z M 159.484628 76.057882 L 142.973368 75.024228 C 141.599696 75.024228 140.566043 74.004175 139.872406 72.970521 L 134.37772 57.479314 L 128.529415 72.616903 C 127.835779 74.004175 126.802126 74.684211 125.428454 75.024228 L 105.476215 75.717864 L 121.647457 86.040802 C 122.681111 86.720838 123.021129 88.448128 122.681111 89.481781 L 115.037513 109.175607 L 132.310412 96.36374 C 133.004049 96.36374 133.684084 96.010121 134.37772 96.010121 C 135.057756 96.010121 135.751392 96.36374 136.091409 96.703758 L 149.855326 105.639423 L 145.720711 89.821799 C 145.380693 88.448128 145.720711 87.074456 146.754365 86.38082 Z M 159.484628 76.057882 " transform="matrix(0.287209,0,0,0.287209,0.3,0.3)"/>
<path style=" stroke:none;fill-rule:nonzero;fill:rgb(89.019608%,100%,72.156863%);fill-opacity:1;" d="M 49.664062 20.960938 C 49.566406 20.566406 49.167969 20.269531 48.773438 20.269531 L 42.15625 19.875 L 39.785156 13.648438 C 39.683594 13.351562 39.289062 13.054688 38.894531 13.054688 C 38.5 13.054688 38.105469 13.351562 37.90625 13.550781 L 37.84375 13.710938 L 37.84375 3.265625 C 37.84375 2.71875 37.402344 2.277344 36.855469 2.277344 L 13.144531 2.277344 C 12.597656 2.277344 12.15625 2.71875 12.15625 3.265625 L 12.15625 46.734375 C 12.15625 47.089844 12.34375 47.417969 12.652344 47.59375 C 12.960938 47.769531 13.335938 47.765625 13.640625 47.589844 L 25 40.964844 L 36.359375 47.589844 C 36.511719 47.679688 36.683594 47.722656 36.855469 47.722656 C 37.027344 47.722656 37.195312 47.679688 37.347656 47.59375 C 37.65625 47.417969 37.84375 47.089844 37.84375 46.734375 L 37.84375 30.722656 L 38.894531 30.050781 L 44.425781 33.707031 C 44.722656 34 45.21875 33.902344 45.515625 33.707031 C 45.910156 33.410156 46.007812 33.011719 45.910156 32.617188 L 44.230469 26.195312 L 49.367188 22.046875 C 49.664062 21.75 49.761719 21.355469 49.664062 20.960938 Z M 42.449219 25.109375 C 42.152344 25.308594 42.054688 25.703125 42.152344 26.097656 L 43.339844 30.640625 L 39.386719 28.074219 C 39.289062 27.976562 39.089844 27.875 38.894531 27.875 C 38.695312 27.875 38.5 27.976562 38.300781 27.976562 L 33.339844 31.65625 L 35.535156 26 C 35.632812 25.703125 35.535156 25.207031 35.238281 25.011719 L 30.59375 22.046875 L 36.324219 21.847656 C 36.71875 21.75 37.015625 21.554688 37.214844 21.15625 L 38.894531 16.808594 L 40.472656 21.257812 C 40.671875 21.554688 40.96875 21.847656 41.363281 21.847656 L 46.105469 22.144531 Z M 42.449219 25.109375 "/>
</g>
</svg>